# xmcd
#
# Track frame offsets:
#	150
#	20243
#	44378
#	66883
#	88918
#	113950
#	137490
#	161165
#	185975
#	208565
#	231595
#	253933
#
# Disc length: 3721 seconds
#
# Revision: 0
# Processed by: cddbd v1.5.2PL0 Copyright (c) Steve Scherf et al.
# Submitted via: EasyCDDAExtractor 16.0.9.1
#
DISCID=bd0e870c
DTITLE=Khánh Hà - KH04: Em Vẫn Yêu Anh
DYEAR=1989
DGENRE=Blues
TTITLE0=Lời Tình Buồn
TTITLE1=Tương Tư 4
TTITLE2=Hạ Trắng
TTITLE3=Tuyệt Tình
TTITLE4=Bài Không Tên Số 8
TTITLE5=Một Đời Tan Vỡ
TTITLE6=Mùa Thu Không Trở Lại
TTITLE7=Em Đi Rồi
TTITLE8=Nhìn Những Mùa Thu Đi
TTITLE9=Giọt Nắng Hồng
TTITLE10=Chuyện Tình Không Suy Tư
TTITLE11=Từ Giọng Hát Em
EXTD=
EXTT0=
EXTT1=
EXTT2=
EXTT3=
EXTT4=
EXTT5=
EXTT6=
EXTT7=
EXTT8=
EXTT9=
EXTT10=
EXTT11=
PLAYORDER=
